<svg width="41" height="41" viewBox="0 0 41 41" fill="none" xmlns="http://www.w3.org/2000/svg">
<circle cx="20.5" cy="20.5" r="20.5" fill="#F2F2F2"/>
<g clip-path="url(#clip0_1870_8429)">
<g clip-path="url(#clip1_1870_8429)">
<path d="M20.6507 10.0509C20.3099 10.1781 20.047 10.4736 19.969 10.8142C19.9403 10.9332 19.9239 12.4884 19.9239 15.2131V19.4274L15.6041 19.4397C11.7442 19.4521 11.2638 19.4603 11.1365 19.5177C10.9229 19.6162 10.7382 19.7844 10.6109 20.0019C10.5164 20.162 10.5 20.2358 10.5 20.4985C10.5 20.7611 10.5164 20.8349 10.6109 20.995C10.7382 21.2125 10.9229 21.3807 11.1365 21.4792C11.2638 21.5366 11.7442 21.5448 15.6041 21.5572L19.9239 21.5695V25.7715C19.9239 28.6521 19.9362 30.0391 19.969 30.1827C20.0265 30.4454 20.2154 30.6957 20.4782 30.8598C20.6548 30.9665 20.7123 30.9829 20.9874 30.9829C21.2543 30.9829 21.3282 30.9665 21.4883 30.8721C21.706 30.7449 21.8743 30.5602 21.9729 30.3469C22.0304 30.2197 22.0386 29.7395 22.0509 25.8864L22.0632 21.5695L26.383 21.5572C30.2388 21.5448 30.7192 21.5366 30.8465 21.4792C31.06 21.3807 31.2448 21.2125 31.3721 20.995C31.4666 20.8349 31.483 20.7611 31.483 20.4985C31.483 20.2358 31.4666 20.162 31.3721 20.0019C31.2448 19.7844 31.06 19.6162 30.8465 19.5177C30.7192 19.4603 30.2388 19.4521 26.383 19.4397L22.0632 19.4274L22.0509 15.1106C22.0386 10.3751 22.055 10.6788 21.7922 10.371C21.5294 10.0591 21.0161 9.91551 20.6507 10.0509Z" fill="black"/>
</g>
</g>
<defs>
<clipPath id="clip0_1870_8429">
<rect width="21" height="21" fill="white" transform="translate(10.5 10)"/>
</clipPath>
<clipPath id="clip1_1870_8429">
<rect width="21" height="21" fill="white" transform="translate(10.5 10)"/>
</clipPath>
</defs>
</svg>
