<svg width="41" height="41" viewBox="0 0 41 41" fill="none" xmlns="http://www.w3.org/2000/svg">
<circle cx="20.5" cy="20.5" r="20.5" fill="#F2F2F2"/>
<g clip-path="url(#clip0_1870_8443)">
<path d="M19.5723 8.03419C17.7607 8.20509 16.3838 8.59083 14.8799 9.34767C13.6836 9.94337 12.7119 10.6563 11.6816 11.6817C10.5879 12.7803 9.89454 13.7471 9.24024 15.1045C8.46876 16.6963 8.08301 18.2783 8.01465 20.085C7.94141 22.1651 8.3711 24.1475 9.29883 26.0127C9.94825 27.3262 10.6221 28.2539 11.6816 29.3184C12.7607 30.3926 13.6934 31.0615 15.0068 31.7061C15.9248 32.1553 16.5156 32.375 17.4482 32.6094C19.8897 33.2246 22.3457 33.1026 24.7187 32.2627C25.3682 32.0332 26.54 31.4668 27.0918 31.1152C30.0312 29.25 32.0869 26.2861 32.751 22.9658C32.9365 22.0479 32.9756 21.6133 32.9756 20.5C32.9756 19.3867 32.9365 18.9522 32.751 18.0342C32.1064 14.8018 30.1387 11.9014 27.3359 10.0459C26.6963 9.6211 25.3291 8.94239 24.6504 8.70802C23.6543 8.36622 22.6338 8.14649 21.5986 8.04884C21.1006 8.00489 19.9727 7.99513 19.5723 8.03419ZM22.0625 9.78224C24.4209 10.1387 26.4521 11.1641 28.1416 12.8584C29.8457 14.5576 30.8564 16.5693 31.2275 18.9863C31.3447 19.7529 31.3447 21.2471 31.2275 22.0137C30.9395 23.8985 30.2559 25.5293 29.1279 27.043C28.6836 27.6387 27.6387 28.6836 27.043 29.1279C25.0703 30.5977 22.9365 31.3106 20.5 31.3106C18.0684 31.3106 15.9248 30.5928 13.9668 29.1279C11.7109 27.4336 10.2168 24.8994 9.77735 22.0137C9.65528 21.2373 9.65528 19.7481 9.77247 18.9863C10.334 15.3584 12.502 12.3799 15.7393 10.7832C16.9893 10.168 18.1318 9.85548 19.7432 9.68946C20.124 9.6504 21.5596 9.70899 22.0625 9.78224Z" fill="black"/>
<path d="M20.2412 13.0488C20.0117 13.1318 19.8457 13.2832 19.748 13.4932C19.6797 13.6348 19.6699 14.0889 19.6699 17.165V20.6807L19.7822 20.8809C19.8652 21.0371 20.3779 21.4717 22.0381 22.7998C23.2197 23.7422 24.2451 24.543 24.3184 24.582C24.3916 24.6211 24.5576 24.6504 24.6894 24.6504C25.2803 24.6504 25.6611 24.0107 25.3975 23.459C25.3389 23.3369 24.792 22.8682 23.3271 21.6963L21.3301 20.0996L21.3203 16.8184L21.3057 13.5322L21.1689 13.3564C20.9346 13.0488 20.5732 12.9267 20.2412 13.0488Z" fill="black"/>
</g>
<defs>
<clipPath id="clip0_1870_8443">
<rect width="25" height="25" fill="white" transform="translate(8 8)"/>
</clipPath>
</defs>
</svg>
