<svg width="41" height="41" viewBox="0 0 41 41" fill="none" xmlns="http://www.w3.org/2000/svg">
<circle cx="20.5" cy="20.5" r="20.5" fill="#F2F2F2"/>
<g clip-path="url(#clip0_1870_8424)">
<path d="M19.8848 8.09766C18.5908 8.33203 17.502 9.34277 17.1797 10.6172C17.0527 11.1006 17.0527 11.6182 17.1748 11.8867C17.3994 12.3799 18.0684 12.5801 18.5322 12.3018C18.8057 12.1309 18.9375 11.9014 19.0108 11.4521C19.0449 11.2275 19.1133 10.9541 19.1572 10.8516C19.2598 10.5977 19.5381 10.3145 19.8408 10.1582C20.0459 10.0508 20.1484 10.0264 20.4756 10.0264C20.9541 10.0264 21.2373 10.1484 21.5547 10.5049C21.8233 10.8076 21.9307 11.1299 21.9063 11.5547C21.8721 12.0869 21.7256 12.3115 20.9639 12.9512C20.1924 13.6006 19.7139 14.4355 19.5625 15.3877L19.5088 15.7393L19.1524 15.8516C18.5274 16.042 17.9414 16.5107 17.4922 17.1797C17.3066 17.4482 17.1797 17.6973 16.7744 18.5469C16.4033 19.3184 16.1543 19.6016 15.4463 20.0752C15.0313 20.3486 14.6504 20.5439 12.4336 21.6133C10.9785 22.3164 10.2119 22.8096 9.49903 23.5078C8.90332 24.0938 8.48828 24.7432 8.24903 25.4658C8.10742 25.8906 7.98535 26.7012 8.00977 27.0723C8.03418 27.458 8.21485 27.7461 8.53711 27.9072C8.75196 28.0195 8.77637 28.0195 10.7441 28.0195H12.7363V30.1094C12.7363 32.1797 12.7363 32.1992 12.8438 32.4141C12.9121 32.541 13.0439 32.6924 13.166 32.7803L13.3809 32.9268H20.5244H27.668L27.8828 32.7803C28.0049 32.6924 28.1367 32.541 28.2051 32.4141L28.3125 32.1992V29.0156V25.8369L28.2002 25.6221C28.0049 25.251 27.7803 25.1533 26.8184 25.0166C24.9336 24.748 23.1367 24.6406 20.5488 24.6406C18.0391 24.6406 16.3106 24.7383 14.3867 24.9971C13.4932 25.1143 13.3516 25.1484 13.1221 25.3047C12.9365 25.4316 12.7363 25.7734 12.7363 25.959V26.0664H11.418H10.0996L10.1729 25.8857C10.4268 25.2803 10.9395 24.7334 11.75 24.2061C12.2676 23.8691 12.4482 23.7764 14.5918 22.7363C17.0527 21.54 17.8877 20.8418 18.4932 19.4746C18.8154 18.7617 19.0986 18.249 19.3086 18.0146C19.5967 17.6924 19.8213 17.6191 20.5244 17.6191C21.4668 17.6191 21.6524 17.7803 22.2822 19.1133C22.751 20.1045 22.9365 20.4023 23.3418 20.8027C24.1084 21.5596 24.7725 21.96 26.7744 22.8682C28.4883 23.6494 29.3379 24.123 29.9092 24.6113C30.6367 25.2363 30.959 25.876 31.042 26.8623C31.086 27.4141 31.1885 27.6436 31.4766 27.8438C31.9112 28.1514 32.5166 28.0342 32.8291 27.5898C32.9707 27.3848 32.9756 27.3555 32.9707 26.8818C32.961 25.0752 32.0967 23.6543 30.3145 22.4873C29.7236 22.1064 29.0449 21.7549 27.7266 21.1592C25.1973 20.0166 24.6846 19.6455 24.2061 18.6055C23.752 17.6338 23.669 17.4678 23.4248 17.1064C22.9951 16.4668 22.3506 15.9785 21.7061 15.8027C21.4815 15.7441 21.4766 15.7393 21.5059 15.5928C21.5791 15.2266 21.8184 14.8213 22.1455 14.5234C23.2246 13.5322 23.4883 13.1953 23.7227 12.4922C23.8692 12.0527 23.9082 11.1787 23.8008 10.7197C23.4443 9.20117 22.1602 8.13184 20.627 8.07324C20.3535 8.06348 20.0215 8.07324 19.8848 8.09766ZM22.1797 26.6035C23.6397 26.6523 24.9043 26.7354 25.8858 26.8525L26.3594 26.9111V28.957V30.998H20.5244H14.6895V28.9473C14.6895 27.3408 14.7041 26.8965 14.7529 26.8965C14.7822 26.8965 15.1191 26.8623 15.4951 26.8232C16.6524 26.7061 17.5947 26.6426 18.791 26.6035C20.5244 26.5547 20.5586 26.5547 22.1797 26.6035Z" fill="black"/>
</g>
<defs>
<clipPath id="clip0_1870_8424">
<rect width="25" height="25" fill="white" transform="translate(8 8)"/>
</clipPath>
</defs>
</svg>
