<svg width="30" height="31" viewBox="0 0 30 31" fill="none" xmlns="http://www.w3.org/2000/svg">
<path d="M5.20545 20.9361C4.96545 20.9361 4.72592 20.8447 4.54264 20.6614C4.17654 20.2953 4.17654 19.7019 4.54264 19.3358L19.193 4.68546C19.5586 4.31937 20.1525 4.31937 20.5186 4.68546C20.8847 5.05155 20.8847 5.64499 20.5186 6.01108L5.86826 20.6614C5.68545 20.8442 5.44545 20.9361 5.20545 20.9361Z" fill="#838383"/>
<path d="M3.75777 27.6875C3.69262 27.6875 3.62652 27.6805 3.56043 27.6664C3.05418 27.5577 2.73168 27.0594 2.84043 26.5531L4.28887 19.8017C4.39762 19.2955 4.89824 18.9739 5.40215 19.0817C5.9084 19.1905 6.2309 19.6888 6.12215 20.195L4.67371 26.9464C4.57949 27.3866 4.19043 27.6875 3.75777 27.6875Z" fill="#838383"/>
<path d="M10.5087 26.2391C10.2687 26.2391 10.0291 26.1477 9.84586 25.9644C9.47977 25.5983 9.47977 25.0049 9.84586 24.6388L24.4962 9.98893C24.8618 9.62283 25.4557 9.62283 25.8218 9.98893C26.1879 10.355 26.1879 10.9485 25.8218 11.3146L11.172 25.9644C10.9887 26.1477 10.7487 26.2391 10.5087 26.2391Z" fill="#838383"/>
<path d="M3.75623 27.6875C3.32357 27.6875 2.93498 27.3865 2.84029 26.9464C2.73201 26.4401 3.05404 25.9419 3.56029 25.8331L10.3117 24.3847C10.8184 24.2773 11.3167 24.5989 11.425 25.1047C11.5333 25.6109 11.2112 26.1092 10.705 26.218L3.95357 27.6664C3.88748 27.6809 3.82138 27.6875 3.75623 27.6875Z" fill="#838383"/>
<path d="M22.507 14.2405C22.267 14.2405 22.027 14.1491 21.8441 13.9658L16.5412 8.66282C16.1751 8.29672 16.1751 7.70329 16.5412 7.33719C16.9068 6.9711 17.5012 6.9711 17.8668 7.33719L23.1698 12.6402C23.5359 13.0063 23.5359 13.5997 23.1698 13.9658C22.987 14.1491 22.747 14.2405 22.507 14.2405Z" fill="#838383"/>
<path d="M25.1588 11.5892C24.9188 11.5892 24.6788 11.4978 24.4955 11.3145C24.1294 10.9484 24.1294 10.355 24.4955 9.98843C25.0172 9.46671 25.3046 8.76031 25.3046 8C25.3046 7.23968 25.0172 6.53328 24.4955 6.01156C23.9733 5.48937 23.2669 5.20203 22.5066 5.20203C21.7463 5.20203 21.0399 5.48937 20.5181 6.01156C20.1525 6.37765 19.5591 6.37812 19.1921 6.01156C18.826 5.64546 18.826 5.05203 19.1921 4.68546C20.0677 3.80937 21.2447 3.32703 22.5066 3.32703C23.768 3.32703 24.9455 3.80937 25.8211 4.68546C26.6972 5.56109 27.1796 6.73812 27.1796 8C27.1796 9.26187 26.6972 10.4389 25.8211 11.3145C25.6388 11.4973 25.3988 11.5892 25.1588 11.5892Z" fill="#838383"/>
</svg>
