<svg width="41" height="41" viewBox="0 0 41 41" fill="none" xmlns="http://www.w3.org/2000/svg">
<circle cx="20.5" cy="20.5" r="20.5" fill="#F2F2F2"/>
<path d="M11.125 20.5V29.875H15.8125H20.5V21.0859V12.2969H23.2344H25.9688V12.7314V13.166L25.8223 13.2246C25.6172 13.3076 25.3145 13.6641 25.2461 13.8984C25.2119 14.0059 25.1875 14.2158 25.1875 14.3672V14.6406H25.5781H25.9688V14.3721C25.9688 14.1475 25.9883 14.0791 26.0908 13.9814C26.252 13.8203 26.4717 13.8203 26.6377 13.9863C26.7402 14.0938 26.7598 14.1426 26.7354 14.3086C26.7109 14.4746 26.6475 14.5674 26.3398 14.8799L25.9688 15.251V15.5781V15.9004L24.8359 16.1787C24.2109 16.335 23.6201 16.501 23.5225 16.5498C23.1562 16.7305 22.8438 17.248 22.8438 17.668C22.8438 18.0977 23.1123 18.542 23.5176 18.7812L23.7471 18.9131H26.3594C28.9619 18.9131 28.9717 18.9131 29.1719 18.8057C29.5723 18.5908 29.875 18.0879 29.875 17.6436C29.875 17.248 29.5527 16.7256 29.1963 16.5498C29.0986 16.501 28.5078 16.335 27.8877 16.1787L26.75 15.9004V15.749C26.75 15.6367 26.8135 15.5342 27.0137 15.3242C27.458 14.8555 27.6143 14.4014 27.4824 13.9326C27.4092 13.6738 27.1113 13.3125 26.8965 13.2246L26.75 13.166V12.7314V12.2969H28.7031H30.6562V11.9062V11.5156H25.5781H20.5V11.3203V11.125H15.8125H11.125V20.5ZM27.5312 16.8867C28.1611 17.0479 28.7422 17.2041 28.8154 17.2383C29.0498 17.3311 29.1523 17.6289 29.0352 17.8877C28.9131 18.1562 28.9082 18.1562 26.3594 18.1562C24.4209 18.1562 23.9863 18.1465 23.874 18.0879C23.5713 17.9268 23.5469 17.458 23.835 17.2773C23.9229 17.2236 26.1836 16.6084 26.335 16.5986C26.3643 16.5938 26.9014 16.7256 27.5312 16.8867ZM19.7188 20.6953V22.0625H19.3281H18.9375V20.6953V19.3281H19.3281H19.7188V20.6953Z" fill="black"/>
<path d="M21.2812 24.7969V25.9688H25.5781H29.875V24.7969V23.625H25.5781H21.2812V24.7969ZM26.3594 24.7969V25.1875H25.5781H24.7969V24.7969V24.4062H25.5781H26.3594V24.7969Z" fill="black"/>
<path d="M21.2812 28.3125V29.875H23.2344H25.1875V28.3125V26.75H23.2344H21.2812V28.3125Z" fill="black"/>
<path d="M25.9688 28.3125V29.875H27.9219H29.875V28.3125V26.75H27.9219H25.9688V28.3125Z" fill="black"/>
</svg>
